<?xml version="1.0" encoding="UTF-8"?>
<svg version="1.1" xmlns="http://www.w3.org/2000/svg" width="1024" height="1024">
<path d="M0 0 C3.58592537 1.52199335 5.8793792 3.63255749 8.61907959 6.37857056 C9.54172104 7.29846268 10.46436249 8.2183548 11.41496277 9.16612244 C12.43005519 10.18829263 13.44505136 11.21055842 14.45996094 12.23291016 C15.53399927 13.30751273 16.60847838 14.3816749 17.68336487 15.45542908 C20.5986874 18.3701776 23.50780072 21.29105311 26.41584682 24.21305895 C29.45653627 27.26624767 32.50288731 30.31377666 35.54864502 33.36190796 C41.31470672 39.13418678 47.07565104 44.91154509 52.83477902 50.69074094 C59.39186433 57.27017801 65.95462699 63.84393953 72.51787519 70.41722798 C86.01824844 83.93850849 99.51146743 97.46690799 113 111 C111.47800665 114.58592537 109.36744251 116.8793792 106.62142944 119.61907959 C105.70153732 120.54172104 104.7816452 121.46436249 103.83387756 122.41496277 C102.81170737 123.43005519 101.78944158 124.44505136 100.76708984 125.45996094 C99.69248727 126.53399927 98.6183251 127.60847838 97.54457092 128.68336487 C94.6298224 131.5986874 91.70894689 134.50780072 88.78694105 137.41584682 C85.73375233 140.45653627 82.68622334 143.50288731 79.63809204 146.54864502 C73.86581322 152.31470672 68.08845491 158.07565104 62.30925906 163.83477902 C55.72982199 170.39186433 49.15606047 176.95462699 42.58277202 183.51787519 C29.06149151 197.01824844 15.53309201 210.51146743 2 224 C-1.58592537 222.47800665 -3.8793792 220.36744251 -6.61907959 217.62142944 C-7.54172104 216.70153732 -8.46436249 215.7816452 -9.41496277 214.83387756 C-10.43005519 213.81170737 -11.44505136 212.78944158 -12.45996094 211.76708984 C-13.53399927 210.69248727 -14.60847838 209.6183251 -15.68336487 208.54457092 C-18.5986874 205.6298224 -21.50780072 202.70894689 -24.41584682 199.78694105 C-27.45653627 196.73375233 -30.50288731 193.68622334 -33.54864502 190.63809204 C-39.31470672 184.86581322 -45.07565104 179.08845491 -50.83477902 173.30925906 C-57.39186433 166.72982199 -63.95462699 160.15606047 -70.51787519 153.58277202 C-84.01824844 140.06149151 -97.51146743 126.53309201 -111 113 C-109.47800665 109.41407463 -107.36744251 107.1206208 -104.62142944 104.38092041 C-103.70153732 103.45827896 -102.7816452 102.53563751 -101.83387756 101.58503723 C-100.81170737 100.56994481 -99.78944158 99.55494864 -98.76708984 98.54003906 C-97.69248727 97.46600073 -96.6183251 96.39152162 -95.54457092 95.31663513 C-92.6298224 92.4013126 -89.70894689 89.49219928 -86.78694105 86.58415318 C-83.73375233 83.54346373 -80.68622334 80.49711269 -77.63809204 77.45135498 C-71.86581322 71.68529328 -66.08845491 65.92434896 -60.30925906 60.16522098 C-53.72982199 53.60813567 -47.15606047 47.04537301 -40.58277202 40.48212481 C-27.06149151 26.98175156 -13.53309201 13.48853257 0 0 Z " fill="#193360" transform="translate(860,400)"/>
<path d="M0 0 C58.08 0 116.16 0 176 0 C169.25 7.875 169.25 7.875 166.20339966 10.91685486 C165.51360519 11.60802399 164.82381073 12.29919312 164.1131134 13.01130676 C163.37727524 13.74354965 162.64143707 14.47579254 161.88330078 15.23022461 C161.09238541 16.02128601 160.30147003 16.81234741 159.48658752 17.62738037 C156.89186111 20.22141442 154.2936189 22.81189602 151.6953125 25.40234375 C149.88762933 27.20816034 148.08016794 29.01419896 146.2729187 30.82044983 C142.01442329 35.07552727 137.75371057 39.32837186 133.49189556 43.58012348 C128.63617012 48.42463409 123.78331665 53.27201732 118.930691 58.1196326 C108.95696499 68.08293322 98.9796745 78.0426579 89 88 C85.85084442 86.60426604 83.72098849 84.97035012 81.29205322 82.53929138 C80.57135147 81.82278412 79.85064972 81.10627686 79.10810852 80.36805725 C78.32767685 79.58200607 77.54724518 78.7959549 76.74316406 77.98608398 C75.91352646 77.15834473 75.08388885 76.33060547 74.22911072 75.4777832 C71.48637076 72.7387501 68.75090055 69.9925795 66.015625 67.24609375 C64.11648831 65.34475917 62.21600232 63.44477524 60.31561279 61.54469299 C56.33443119 57.56257554 52.3571386 53.57660725 48.38232422 49.58813477 C43.78108841 44.97114733 39.1746204 40.35943381 34.56513619 35.75068229 C30.1342234 31.32037878 25.70616932 26.88723018 21.27971649 22.45247078 C19.39372813 20.5629441 17.50688586 18.67427613 15.6193924 16.78625298 C12.99014799 14.15485368 10.36421539 11.52019619 7.73925781 8.88452148 C6.95072922 8.09644608 6.16220062 7.30837067 5.34977722 6.49641418 C4.64035477 5.78272675 3.93093231 5.06903931 3.20001221 4.33372498 C2.57838825 3.71042518 1.9567643 3.08712538 1.31630325 2.44493771 C0 1 0 1 0 0 Z " fill="#FEFEFE" transform="translate(773,536)"/>
<path d="M0 0 C58.08 0 116.16 0 176 0 C174.02 2.31 172.04 4.62 170 7 C168.95291367 8.60634811 168.95291367 8.60634811 167.88467407 10.24514771 C164.26074093 15.07235466 161.02708912 18.27534413 155.01915741 19.7135849 C146.42453014 20.87154616 137.76253506 20.84584639 129.105968 20.80949545 C126.0498108 20.80302248 122.99438818 20.83251521 119.93839037 20.86112797 C112.71470278 20.92746237 105.49288694 20.93046968 98.26904297 20.89404297 C90.86381293 20.85786981 83.46544218 20.93150185 76.06138265 21.05946338 C69.66387311 21.16588318 63.26852242 21.20105782 56.87016261 21.18163693 C53.06613674 21.17086019 49.2669953 21.18547442 45.46378708 21.26992416 C19.49713089 21.79897828 19.49713089 21.79897828 9.3991642 12.45691109 C0 2.53256123 0 2.53256123 0 0 Z " fill="#FDFDFE" transform="translate(773,536)"/>
<path d="M0 0 C17 0 17 0 21.56030273 3.99145508 C22.74628804 5.79514476 23.86893887 7.64166875 24.93359375 9.51953125 C25.5484816 10.48904221 26.16336945 11.45855316 26.79689026 12.45744324 C28.73610174 15.54351172 30.58588265 18.67326231 32.4375 21.8125 C33.73463944 23.91037079 35.03732771 26.00482141 36.34570312 28.09570312 C39.20696336 32.69002476 42.0127471 37.3131379 44.77293396 41.96882629 C45.8031691 43.674184 46.89481928 45.34222893 48 47 C48.33 31.49 48.66 15.98 49 0 C53.62 0 58.24 0 63 0 C63 23.1 63 46.2 63 70 C46 70 46 70 41.43969727 66.1003418 C40.25454858 64.33934379 39.13175277 62.53517304 38.06640625 60.69921875 C37.4515184 59.75190384 36.83663055 58.80458893 36.20310974 57.8285675 C34.26460666 54.81418785 32.41454364 51.75558793 30.5625 48.6875 C29.26528437 46.63777296 27.96259449 44.59149958 26.65429688 42.54882812 C23.79375586 38.06061588 20.98795761 33.543339 18.22706604 28.99320984 C17.18814255 27.3056132 16.0992787 25.64891805 15 24 C14.67 39.18 14.34 54.36 14 70 C9.38 70 4.76 70 0 70 C0 46.9 0 23.8 0 0 Z " fill="#000000" transform="translate(476,527)"/>
<path d="M0 0 C3.3715121 2.85381351 5.78523747 5.93403921 8.03515625 9.72265625 C8.44894531 10.41617188 8.86273438 11.1096875 9.2890625 11.82421875 C13.65027126 20.66820307 13.52973588 31.89061573 11.1171875 41.3046875 C7.51451781 50.57369205 2.10998573 57.44385064 -6.96484375 61.72265625 C-18.03997454 65.85715035 -28.87455914 65.97273951 -39.96484375 61.72265625 C-49.06753827 56.77373368 -54.22875916 50.44886421 -58.08984375 40.95703125 C-60.80276203 30.92892262 -60.03562037 19.48902268 -55.4375 10.203125 C-50.42789642 1.76519855 -43.26033934 -4.14257811 -33.58984375 -6.65234375 C-21.35569377 -8.74531121 -10.19152302 -7.31560823 0 0 Z M-40.33984375 14.09765625 C-44.4298285 19.35462034 -45.49256766 24.48475945 -45.34375 31.0625 C-44.48464039 37.09398087 -41.5650438 42.63992348 -37.02734375 46.72265625 C-31.1976763 50.52978602 -25.81406717 51.48900293 -18.96484375 50.72265625 C-12.96489127 48.79046816 -7.85347918 46.06138948 -4.703125 40.4921875 C-1.79857569 33.9187338 -0.45334351 28.01917608 -2.8828125 21.11328125 C-5.76854607 14.80015539 -8.91642347 10.61594732 -15.3203125 7.62109375 C-24.79162549 4.40336555 -33.69074223 6.8717652 -40.33984375 14.09765625 Z " fill="#000000" transform="translate(450.96484375,533.27734375)"/>
<path d="M0 0 C45.54 0 91.08 0 138 0 C136.02 2.31 134.04 4.62 132 7 C131.12896637 8.14154541 130.25793274 9.28309082 129.36050415 10.45922852 C124.24047772 16.77197646 119.68267498 20.58950592 111.43977928 21.58888245 C106.46222631 21.92465515 101.51061188 21.96545448 96.5234375 21.9375 C94.34547614 21.96155773 92.16754544 21.98855002 89.98965454 22.01831055 C85.43815408 22.06435803 80.8899365 22.06085229 76.33837891 22.02441406 C71.70287292 21.99205366 67.07805379 22.03347824 62.44384766 22.14746094 C19.99669265 23.18653204 19.99669265 23.18653204 8.77139282 13.1081543 C0 3.42757557 0 3.42757557 0 0 Z " fill="#A63049" transform="translate(792,555)"/>
<path d="M0 0 C0.74886475 0.00523682 1.49772949 0.01047363 2.26928711 0.01586914 C3.07817383 0.0190918 3.88706055 0.02231445 4.72045898 0.02563477 C5.5705957 0.03401367 6.42073242 0.04239258 7.29663086 0.05102539 C8.15063477 0.05553711 9.00463867 0.06004883 9.88452148 0.06469727 C12.00108749 0.07652166 14.11761771 0.0944577 16.23413086 0.11352539 C23.32650699 18.02396412 30.41843556 35.93472359 37.38391113 53.89498901 C37.90898433 55.2488243 38.43461903 56.60244194 38.96081543 57.95584106 C39.6878465 59.82671003 40.41223661 61.69860467 41.13647461 63.57055664 C41.54373779 64.62218994 41.95100098 65.67382324 42.37060547 66.75732422 C43.23413086 69.11352539 43.23413086 69.11352539 43.23413086 70.11352539 C37.95413086 70.11352539 32.67413086 70.11352539 27.23413086 70.11352539 C26.24413086 67.67977539 25.25413086 65.24602539 24.23413086 62.73852539 C23.92088867 61.97362793 23.60764648 61.20873047 23.28491211 60.4206543 C21.23413086 55.33574761 21.23413086 55.33574761 21.23413086 53.11352539 C11.99413086 53.44352539 2.75413086 53.77352539 -6.76586914 54.11352539 C-8.74586914 59.39352539 -10.72586914 64.67352539 -12.76586914 70.11352539 C-18.04586914 70.11352539 -23.32586914 70.11352539 -28.76586914 70.11352539 C-26.67852127 62.83575785 -24.21922613 55.81651938 -21.45727539 48.76977539 C-21.04928207 47.7200354 -20.64128876 46.67029541 -20.22093201 45.58874512 C-18.92700494 42.26225927 -17.6277277 38.93789285 -16.32836914 35.61352539 C-15.46018813 33.38318992 -14.59234661 31.15272227 -13.72485352 28.92211914 C-11.412815 22.98290927 -9.0975963 17.04503622 -6.76586914 11.11352539 C-6.20632034 9.68133667 -6.20632034 9.68133667 -5.63546753 8.22021484 C-5.27752106 7.31166748 -4.91957458 6.40312012 -4.55078125 5.46704102 C-4.23120956 4.6528772 -3.91163788 3.83871338 -3.5823822 2.99987793 C-2.34925036 0.1510302 -2.34925036 0.1510302 0 0 Z M6.23413086 17.11352539 C4.89812473 20.59167167 3.56577444 24.07120678 2.23413086 27.55102539 C1.85256836 28.54424805 1.47100586 29.5374707 1.07788086 30.56079102 C0.71694336 31.5050293 0.35600586 32.44926758 -0.01586914 33.42211914 C-0.35102539 34.29666748 -0.68618164 35.17121582 -1.03149414 36.07226562 C-1.82228984 37.90879454 -1.82228984 37.90879454 -1.76586914 39.11352539 C3.84413086 39.11352539 9.45413086 39.11352539 15.23413086 39.11352539 C14.29480019 34.41687204 12.9673364 30.31874017 11.29663086 25.86352539 C11.03172852 25.13133789 10.76682617 24.39915039 10.49389648 23.64477539 C9.26460791 19.65519278 9.26460791 19.65519278 6.23413086 17.11352539 Z " fill="#000000" transform="translate(257.765869140625,526.886474609375)"/>
<path d="M0 0 C5.94 0 11.88 0 18 0 C22.4995231 8.99904619 22.4995231 8.99904619 23.70410156 12.17089844 C23.97853592 12.88717407 24.25297028 13.60344971 24.53572083 14.34143066 C24.8178392 15.08985229 25.09995758 15.83827393 25.390625 16.609375 C25.84975533 17.81128479 25.84975533 17.81128479 26.31816101 19.03747559 C27.29909096 21.60694279 28.27460755 24.17842628 29.25 26.75 C30.58766029 30.26125183 31.92816428 33.77141271 33.26953125 37.28125 C33.5947023 38.13293762 33.91987335 38.98462524 34.25489807 39.86212158 C37.04340727 47.15011222 39.91964211 54.39949614 42.91699219 61.60449219 C44.13308439 64.57087373 45 66.7590622 45 70 C39.72 70 34.44 70 29 70 C27.02 64.72 25.04 59.44 23 54 C9.14 53.505 9.14 53.505 -5 53 C-5.33 54.65 -5.66 56.3 -6 58 C-6.81164833 60.12093023 -7.66793728 62.22518699 -8.5625 64.3125 C-9.7690625 67.1278125 -9.7690625 67.1278125 -11 70 C-15.95 70 -20.9 70 -26 70 C-24.64387275 62.99491058 -22.49716142 56.68311346 -19.82421875 50.078125 C-19.41718216 49.05628113 -19.01014557 48.03443726 -18.59077454 46.98162842 C-17.29607078 43.73515623 -15.99208886 40.49251081 -14.6875 37.25 C-13.82292261 35.08879962 -12.95898462 32.92734334 -12.09570312 30.765625 C-10.84677832 27.63832375 -9.59747309 24.51118548 -8.34542847 21.38513184 C-5.50111689 14.2794489 -2.71941733 7.15459075 0 0 Z M9 16 C7.66128359 19.45627381 6.32994608 22.91534297 5 26.375 C4.42765625 27.85226562 4.42765625 27.85226562 3.84375 29.359375 C3.4828125 30.30039062 3.121875 31.24140625 2.75 32.2109375 C2.24726562 33.51490479 2.24726562 33.51490479 1.734375 34.84521484 C0.89246968 36.93609786 0.89246968 36.93609786 1 39 C6.61 39 12.22 39 18 39 C16.88016119 35.72731599 15.75438447 32.45688878 14.625 29.1875 C14.14933594 27.7943457 14.14933594 27.7943457 13.6640625 26.37304688 C13.2 25.0340332 13.2 25.0340332 12.7265625 23.66796875 C12.44377441 22.84578857 12.16098633 22.0236084 11.86962891 21.17651367 C10.99372356 18.76699724 10.99372356 18.76699724 9 16 Z " fill="#000000" transform="translate(82,527)"/>
<path d="M0 0 C5.28 0 10.56 0 16 0 C18.04544093 5.17344543 20.09008218 10.34720598 22.1340332 15.52124023 C22.8271813 17.2755555 23.52053502 19.02978953 24.21411133 20.78393555 C26.18470816 25.76805157 28.15181922 30.75351138 30.11224365 35.74163818 C30.68373364 37.19545056 31.25597988 38.64896599 31.8291626 40.10211182 C32.55237155 41.93779217 33.27052203 43.77546319 33.98828125 45.61328125 C34.38184814 46.61786377 34.77541504 47.62244629 35.1809082 48.6574707 C36 51 36 51 36 53 C36.66 53 37.32 53 38 53 C38.17002029 52.39858185 38.34004059 51.7971637 38.51521301 51.17752075 C40.35458001 44.84146025 42.55778264 38.73848785 45.01171875 32.6171875 C45.38480667 31.67690704 45.75789459 30.73662659 46.14228821 29.76785278 C47.32011927 26.8019974 48.50370115 23.83847771 49.6875 20.875 C50.49322194 18.84911077 51.29856403 16.82307043 52.10351562 14.796875 C54.06462743 9.86282706 56.0308957 4.9308634 58 0 C63.28 0 68.56 0 74 0 C71.9797215 6.23954196 69.74475381 12.3265065 67.26953125 18.3984375 C66.91541672 19.27287506 66.56130219 20.14731262 66.19645691 21.04824829 C65.44893209 22.89256049 64.70007603 24.73633362 63.94995117 26.57958984 C62.83009053 29.33176937 61.71447728 32.08563853 60.59960938 34.83984375 C55.83056875 46.60207994 50.94762115 58.31173531 46 70 C40.06 70 34.12 70 28 70 C24.17619903 61.76839937 20.71027526 53.43943075 17.375 45 C16.32710892 42.35874257 15.27715835 39.71830761 14.2265625 37.078125 C13.96166016 36.41194153 13.69675781 35.74575806 13.42382812 35.05938721 C11.56689879 30.39835391 9.67969679 25.75043471 7.7734375 21.109375 C7.51682343 20.48389771 7.26020935 19.85842041 6.99581909 19.21398926 C5.76904443 16.22544665 4.53824563 13.23864711 3.30224609 10.25390625 C2.86734863 9.19558594 2.43245117 8.13726563 1.984375 7.046875 C1.59991211 6.11713867 1.21544922 5.18740234 0.81933594 4.22949219 C0 2 0 2 0 0 Z " fill="#000000" transform="translate(124,527)"/>
<path d="M0 0 C14 0 14 0 17.79248047 3.3046875 C18.78439209 4.79583651 19.7245733 6.32237193 20.6171875 7.875 C21.13008331 8.67405762 21.64297913 9.47311523 22.17141724 10.29638672 C23.78754465 12.83748199 25.33041637 15.41493086 26.875 18 C27.96288184 19.7372427 29.0552907 21.47165923 30.15234375 23.203125 C32.83172388 27.43500526 35.40762392 31.70917063 38 36 C38.33 24.12 38.66 12.24 39 0 C42.96 0 46.92 0 51 0 C51 18.81 51 37.62 51 57 C37 57 37 57 33.20751953 53.6953125 C32.21560791 52.20416349 31.2754267 50.67762807 30.3828125 49.125 C29.86991669 48.32594238 29.35702087 47.52688477 28.82858276 46.70361328 C27.21245535 44.16251801 25.66958363 41.58506914 24.125 39 C23.03711816 37.2627573 21.9447093 35.52834077 20.84765625 33.796875 C18.16827612 29.56499474 15.59237608 25.29082937 13 21 C12.67 32.88 12.34 44.76 12 57 C8.04 57 4.08 57 0 57 C0 38.19 0 19.38 0 0 Z " fill="#000000" transform="translate(121,421)"/>
<path d="M0 0 C32.80816327 0 32.80816327 0 42 8 C48.64287704 16.57756424 49.89701023 24.30960413 49 35 C47.1402314 42.1499912 44.05022304 47.67917812 38.125 52.1875 C26.47133988 58.94662287 13.11715547 57 0 57 C0 38.19 0 19.38 0 0 Z M11 12 C11 22.89 11 33.78 11 45 C23.18112875 45.98120058 23.18112875 45.98120058 32.546875 41.46875 C36.39603221 37.578204 37.20613877 33.94388821 37.5 28.625 C37.33559201 23.13975155 35.95786657 18.90264052 32 15 C24.88196601 10.88196601 24.88196601 10.88196601 11 12 Z " fill="#000000" transform="translate(309,421)"/>
<path d="M0 0 C20.79 0 41.58 0 63 0 C63 4.62 63 9.24 63 14 C54.75 14 46.5 14 38 14 C38 32.48 38 50.96 38 70 C33.38 70 28.76 70 24 70 C24 51.52 24 33.04 24 14 C16.08 14 8.16 14 0 14 C0 9.38 0 4.76 0 0 Z " fill="#000000" transform="translate(294,527)"/>
<path d="M0 0 C13.2 0 26.4 0 40 0 C40 3.63 40 7.26 40 11 C30.76 11 21.52 11 12 11 C12 14.63 12 18.26 12 22 C20.25 22 28.5 22 37 22 C37 25.63 37 29.26 37 33 C28.75 33 20.5 33 12 33 C12 37.29 12 41.58 12 46 C21.24 46 30.48 46 40 46 C40 49.63 40 53.26 40 57 C26.8 57 13.6 57 0 57 C0 38.19 0 19.38 0 0 Z " fill="#000000" transform="translate(582,421)"/>
<path d="M0 0 C13.2 0 26.4 0 40 0 C40 3.63 40 7.26 40 11 C30.76 11 21.52 11 12 11 C12 14.63 12 18.26 12 22 C20.25 22 28.5 22 37 22 C37 25.63 37 29.26 37 33 C28.75 33 20.5 33 12 33 C12 37.29 12 41.58 12 46 C21.24 46 30.48 46 40 46 C40 49.63 40 53.26 40 57 C26.8 57 13.6 57 0 57 C0 38.19 0 19.38 0 0 Z " fill="#000000" transform="translate(260,421)"/>
<path d="M0 0 C1.93166016 0.01740234 1.93166016 0.01740234 3.90234375 0.03515625 C5.19269531 0.04417969 6.48304688 0.05320312 7.8125 0.0625 C8.81152344 0.07410156 9.81054688 0.08570313 10.83984375 0.09765625 C16.51215986 13.86677242 22.12438138 27.65788708 27.52734375 41.53515625 C28.17775635 43.18523682 28.17775635 43.18523682 28.84130859 44.86865234 C29.23656738 45.89168457 29.63182617 46.9147168 30.0390625 47.96875 C30.38799561 48.8652124 30.73692871 49.7616748 31.09643555 50.68530273 C31.83984375 53.09765625 31.83984375 53.09765625 31.83984375 57.09765625 C27.87984375 57.09765625 23.91984375 57.09765625 19.83984375 57.09765625 C19.00220107 55.14116228 18.16985316 53.18240069 17.33984375 51.22265625 C16.87578125 50.13210938 16.41171875 49.0415625 15.93359375 47.91796875 C14.83984375 45.09765625 14.83984375 45.09765625 14.83984375 43.09765625 C7.57984375 43.42765625 0.31984375 43.75765625 -7.16015625 44.09765625 C-8.81015625 48.38765625 -10.46015625 52.67765625 -12.16015625 57.09765625 C-16.45015625 57.09765625 -20.74015625 57.09765625 -25.16015625 57.09765625 C-23.10382881 49.93376838 -20.69755884 43.02517064 -17.96484375 36.09375 C-17.57193146 35.08925308 -17.17901917 34.08475616 -16.77420044 33.04981995 C-15.95081678 30.94742461 -15.12550551 28.84578327 -14.29833984 26.74487305 C-13.02715409 23.51482297 -11.76315513 20.282026 -10.5 17.04882812 C-9.69703459 15.00113734 -8.89366394 12.9536054 -8.08984375 10.90625 C-7.71068817 9.93658798 -7.33153259 8.96692596 -6.94088745 7.96788025 C-6.59027252 7.07927811 -6.23965759 6.19067596 -5.87841797 5.27514648 C-5.56991913 4.49034409 -5.26142029 3.70554169 -4.943573 2.8969574 C-3.6303627 -0.11913946 -3.55371866 0.10981825 0 0 Z M2.83984375 15.09765625 C0.85984375 20.70765625 -1.12015625 26.31765625 -3.16015625 32.09765625 C1.45984375 32.09765625 6.07984375 32.09765625 10.83984375 32.09765625 C9.89007392 29.44845549 8.93056467 26.80353652 7.96484375 24.16015625 C7.69542969 23.40541016 7.42601562 22.65066406 7.1484375 21.87304688 C5.92364961 17.74668533 5.92364961 17.74668533 2.83984375 15.09765625 Z " fill="#000000" transform="translate(498.16015625,420.90234375)"/>
<path d="M0 0 C3.63 0 7.26 0 11 0 C11.01981934 0.92748047 11.03963867 1.85496094 11.06005859 2.81054688 C11.13862316 6.28475027 11.22532999 9.75855956 11.31738281 13.23242188 C11.35542835 14.72973948 11.39032167 16.22714089 11.421875 17.72460938 C11.46806201 19.88962567 11.52596017 22.05407686 11.5859375 24.21875 C11.6173584 25.51748047 11.6487793 26.81621094 11.68115234 28.15429688 C12.13361315 33.61154235 12.91139953 38.36709929 16 43 C19.72792584 45.48528389 22.20924741 45.7130698 26.62109375 45.49609375 C30.2664039 44.73590592 31.86826562 42.95692188 34 40 C35.26625424 36.20123729 35.23298547 32.57578074 35.31640625 28.61328125 C35.33718735 27.79627243 35.35796844 26.97926361 35.37937927 26.13749695 C35.44473079 23.52924966 35.50369273 20.92090225 35.5625 18.3125 C35.60569892 16.54360946 35.64931365 14.77472903 35.69335938 13.00585938 C35.80039743 8.67067537 35.90170544 4.33539071 36 0 C39.96 0 43.92 0 48 0 C48.09952633 5.38935067 48.17177659 10.7781561 48.21972656 16.16821289 C48.23973374 17.99838593 48.26694851 19.82849592 48.30175781 21.65844727 C48.35076003 24.30240512 48.37307761 26.94551165 48.390625 29.58984375 C48.41127014 30.39646957 48.43191528 31.2030954 48.45318604 32.03416443 C48.45600056 39.30168574 46.29502934 45.13121333 41.75 50.8125 C33.85388686 57.09349909 27.10209021 57.99818272 17 57 C14.16963646 56.3263347 12.55528813 55.52229931 10 54 C9.13375 53.484375 8.2675 52.96875 7.375 52.4375 C0.19184229 45.06531183 -0.51845021 37.4653128 -0.47711182 27.61079407 C-0.43893333 24.86495959 -0.37637326 22.12034516 -0.3125 19.375 C-0.28738118 17.49351928 -0.26457435 15.61200619 -0.24414062 13.73046875 C-0.18943969 9.15283737 -0.10336718 4.5767805 0 0 Z " fill="#000000" transform="translate(61,421)"/>
<path d="M0 0 C1.85546875 1.16796875 1.85546875 1.16796875 3.85546875 4.16796875 C2.20546875 6.80796875 0.55546875 9.44796875 -1.14453125 12.16796875 C-3.65248088 11.74997715 -5.76084777 11.37960048 -8 10.14453125 C-10.5509373 8.98290224 -12.41425108 8.9011194 -15.20703125 8.91796875 C-16.06425781 8.9128125 -16.92148437 8.90765625 -17.8046875 8.90234375 C-20.41505923 9.01804387 -20.41505923 9.01804387 -23.14453125 11.16796875 C-22.90397539 13.112794 -22.90397539 13.112794 -22.14453125 15.16796875 C-17.91621001 17.62808292 -13.65871144 19.34945712 -9.08203125 21.04296875 C-4.35007908 22.89047477 -0.50334762 25.31611511 2.85546875 29.16796875 C4.78908745 34.96882485 4.84905894 41.06614335 2.23046875 46.60546875 C-3.66691914 52.96843989 -9.64101924 54.68528147 -18.14453125 55.16796875 C-24.48579242 54.73143266 -30.78675102 53.78809053 -36.14453125 50.16796875 C-37.14453125 47.16796875 -37.14453125 47.16796875 -36.1484375 45.125 C-35.67277344 44.41730469 -35.19710937 43.70960938 -34.70703125 42.98046875 C-33.99740234 41.90732422 -33.99740234 41.90732422 -33.2734375 40.8125 C-32.90089844 40.26980469 -32.52835938 39.72710937 -32.14453125 39.16796875 C-26.39453125 41.04296875 -26.39453125 41.04296875 -24.14453125 42.16796875 C-22.16815711 42.29024801 -20.18714815 42.34346804 -18.20703125 42.35546875 C-17.14613281 42.36964844 -16.08523438 42.38382812 -14.9921875 42.3984375 C-11.94175456 42.38361942 -11.94175456 42.38361942 -9.14453125 40.16796875 C-8.89431555 37.08431004 -8.89431555 37.08431004 -9.14453125 34.16796875 C-9.70398438 34.03261719 -10.2634375 33.89726562 -10.83984375 33.7578125 C-16.31802325 32.28698296 -21.46295471 30.28959832 -26.58203125 27.85546875 C-27.75636719 27.30246094 -28.93070313 26.74945313 -30.140625 26.1796875 C-33.65074319 23.82895816 -34.70876117 22.10248254 -36.14453125 18.16796875 C-37.09170021 12.59638661 -36.33436627 7.89772412 -33.14453125 3.16796875 C-24.11678285 -5.38463499 -10.88942251 -4.7607023 0 0 Z " fill="#000000" transform="translate(664.14453125,423.83203125)"/>
<path d="M0 0 C0.61230469 0.32097656 1.22460938 0.64195312 1.85546875 0.97265625 C2.51546875 1.30265625 3.17546875 1.63265625 3.85546875 1.97265625 C2.6996159 5.88477358 1.50011913 8.84716035 -1.14453125 11.97265625 C-3.36347257 11.47955818 -5.22742492 10.93120942 -7.26953125 9.91015625 C-11.48767055 8.53467604 -15.7436372 8.46543456 -20.14453125 8.97265625 C-21.13453125 9.63265625 -22.12453125 10.29265625 -23.14453125 10.97265625 C-22.94472352 12.92207794 -22.94472352 12.92207794 -22.14453125 14.97265625 C-20.41487472 16.19082194 -20.41487472 16.19082194 -18.20703125 16.97265625 C-17.39878906 17.30265625 -16.59054687 17.63265625 -15.7578125 17.97265625 C-14.00653536 18.64280116 -12.25391069 19.30943448 -10.5 19.97265625 C0.34516668 24.13511902 0.34516668 24.13511902 2.88671875 28.91015625 C5.1904045 34.6296519 5.2090969 39.26591403 2.85546875 44.97265625 C0.03894748 49.96409741 -3.73940658 52.26103344 -9.14453125 53.97265625 C-17.47574067 55.89894745 -26.8980219 55.11186501 -34.39453125 50.84765625 C-35.30203125 50.22890625 -36.20953125 49.61015625 -37.14453125 48.97265625 C-35.9886784 45.06053892 -34.78918163 42.09815215 -32.14453125 38.97265625 C-31.62246094 39.18921875 -31.10039062 39.40578125 -30.5625 39.62890625 C-23.61099838 42.25854609 -16.32719932 43.36687894 -9.14453125 40.97265625 C-8.13975088 39.12041955 -8.13975088 39.12041955 -8.14453125 36.97265625 C-10.23706791 34.37929525 -12.3340882 33.29948689 -15.41796875 32.140625 C-16.24296875 31.81642578 -17.06796875 31.49222656 -17.91796875 31.15820312 C-19.64163137 30.49694817 -21.36819188 29.84319436 -23.09765625 29.19726562 C-28.6756692 26.98604398 -31.78148693 24.99042557 -35.14453125 19.97265625 C-36.83632591 14.89727228 -36.70824992 10.65301189 -34.51953125 5.78515625 C-27.92707936 -6.32055611 -10.85675157 -5.07375827 0 0 Z " fill="#000000" transform="translate(420.14453125,424.02734375)"/>
<path d="M0 0 C16.83 0 33.66 0 51 0 C51 3.96 51 7.92 51 12 C44.73 12 38.46 12 32 12 C32 26.85 32 41.7 32 57 C28.04 57 24.08 57 20 57 C20 42.15 20 27.3 20 12 C13.4 12 6.8 12 0 12 C0 8.04 0 4.08 0 0 Z " fill="#000000" transform="translate(428,421)"/>
<path d="M0 0 C16.5 0 33 0 50 0 C50 3.96 50 7.92 50 12 C43.73 12 37.46 12 31 12 C31 26.85 31 41.7 31 57 C27.04 57 23.08 57 19 57 C19 42.15 19 27.3 19 12 C12.73 12 6.46 12 0 12 C0 8.04 0 4.08 0 0 Z " fill="#000000" transform="translate(525,421)"/>
<path d="M0 0 C16.5 0 33 0 50 0 C50 3.96 50 7.92 50 12 C43.73 12 37.46 12 31 12 C31 26.85 31 41.7 31 57 C27.04 57 23.08 57 19 57 C19 42.15 19 27.3 19 12 C12.73 12 6.46 12 0 12 C0 8.04 0 4.08 0 0 Z " fill="#000000" transform="translate(203,421)"/>
<path d="M0 0 C4.95 0 9.9 0 15 0 C15 23.1 15 46.2 15 70 C10.05 70 5.1 70 0 70 C0 46.9 0 23.8 0 0 Z " fill="#000000" transform="translate(206,527)"/>
<path d="M0 0 C4.62 0 9.24 0 14 0 C14 23.1 14 46.2 14 70 C9.38 70 4.76 70 0 70 C0 46.9 0 23.8 0 0 Z " fill="#000000" transform="translate(365,527)"/>
<path d="M0 0 C19.8 0 39.6 0 60 0 C56.1819498 4.4543919 52.51309612 8.60776397 48.3828125 12.71484375 C47.88079315 13.21544815 47.3787738 13.71605255 46.86154175 14.23182678 C45.28506329 15.80278598 43.70511427 17.37019877 42.125 18.9375 C41.04403726 20.01343727 39.96330617 21.08960731 38.8828125 22.16601562 C36.25787359 24.78003292 33.62981372 27.39088596 31 30 C26.72113402 28.34632885 23.8599365 25.13020426 20.703125 21.93359375 C20.10949158 21.33950211 19.51585815 20.74541046 18.90423584 20.13331604 C17.65464684 18.88071283 16.40748226 17.62568693 15.16259766 16.3684082 C13.24826588 14.43574928 11.32598142 12.51128287 9.40234375 10.58789062 C8.1896298 9.37026394 6.97737392 8.15218082 5.765625 6.93359375 C5.18758118 6.3544371 4.60953735 5.77528046 4.01397705 5.17857361 C0 1.11606324 0 1.11606324 0 0 Z " fill="#A63048" transform="translate(831,594)"/>
<path d="M0 0 C3.63 0 7.26 0 11 0 C11 18.81 11 37.62 11 57 C7.37 57 3.74 57 0 57 C0 38.19 0 19.38 0 0 Z " fill="#000000" transform="translate(185,421)"/>
<path d="M0 0 C15.3255132 -1.65043988 15.3255132 -1.65043988 20.2265625 1.37402344 C24.69095171 5.10479813 28.3926386 9.45310074 32 14 C30.84826645 16.46800047 29.95216435 18.04783565 28 20 C25.20263672 20.22705078 25.20263672 20.22705078 21.6796875 20.1953125 C19.79443359 20.18564453 19.79443359 20.18564453 17.87109375 20.17578125 C16.55238281 20.15902344 15.23367188 20.14226563 13.875 20.125 C12.53516279 20.11496983 11.19531848 20.10584404 9.85546875 20.09765625 C6.57023624 20.07402148 3.28509602 20.0381495 0 20 C0 13.4 0 6.8 0 0 Z " fill="#FBF8F9" transform="translate(941,497)"/>
<path d="M0 0 C8.91 0 17.82 0 27 0 C18.63422819 9.76006711 18.63422819 9.76006711 15.1875 13.4375 C14.71763672 13.97826172 14.24777344 14.51902344 13.76367188 15.07617188 C12.29296875 16.62109375 12.29296875 16.62109375 9 19 C6.03 19 3.06 19 0 19 C0 12.73 0 6.46 0 0 Z " fill="#A32A43" transform="translate(941,517)"/>
<path d="M0 0 C6.01826738 4.97161218 11.66337352 10.29829243 17 16 C17 16.33 17 16.66 17 17 C11.39 17 5.78 17 0 17 C0 11.39 0 5.78 0 0 Z " fill="#A22B44" transform="translate(941,480)"/>
<path d="M0 0 C6.6 0 13.2 0 20 0 C14 7 14 7 11 10 C7.81326038 8.59698853 5.67778594 6.92234929 3.25 4.4375 C2.63640625 3.81746094 2.0228125 3.19742188 1.390625 2.55859375 C0 1 0 1 0 0 Z " fill="#FFFFFF" transform="translate(851,614)"/>
<path d="M0 0 C0.66 0 1.32 0 2 0 C2.33 1.32 2.66 2.64 3 4 C4.65 4 6.3 4 8 4 C8 4.66 8 5.32 8 6 C7.01 6.495 7.01 6.495 6 7 C6 8.98 6 10.96 6 13 C5.071875 12.62875 4.14375 12.2575 3.1875 11.875 C2.135625 11.58625 1.08375 11.2975 0 11 C-0.99 11.66 -1.98 12.32 -3 13 C-2.9071875 11.6078125 -2.9071875 11.6078125 -2.8125 10.1875 C-2.69105736 7.01604897 -2.69105736 7.01604897 -4.5 5.125 C-4.995 4.75375 -5.49 4.3825 -6 4 C-4.02 4 -2.04 4 0 4 C0 2.68 0 1.36 0 0 Z " fill="#CFD5DE" transform="translate(780,502)"/>
<path d="M0 0 C0.66 0.99 1.32 1.98 2 3 C4.56282742 3.72965366 4.56282742 3.72965366 7 4 C6.01 5.485 6.01 5.485 5 7 C4.83300768 10.12521833 4.83300768 10.12521833 5 13 C4.071875 12.62875 3.14375 12.2575 2.1875 11.875 C1.135625 11.58625 0.08375 11.2975 -1 11 C-1.99 11.66 -2.98 12.32 -4 13 C-3.9071875 11.6078125 -3.9071875 11.6078125 -3.8125 10.1875 C-3.69105736 7.01604897 -3.69105736 7.01604897 -5.5 5.125 C-5.995 4.75375 -6.49 4.3825 -7 4 C-5.02 4 -3.04 4 -1 4 C-0.67 2.68 -0.34 1.36 0 0 Z " fill="#D4D9E1" transform="translate(861,407)"/>
<path d="M0 0 C0.66 0 1.32 0 2 0 C2.33 0.99 2.66 1.98 3 3 C4.65 3.33 6.3 3.66 8 4 C8 4.66 8 5.32 8 6 C6.68 6.33 5.36 6.66 4 7 C4.33 8.65 4.66 10.3 5 12 C4.236875 11.79375 3.47375 11.5875 2.6875 11.375 C-0.21885944 10.66608797 -0.21885944 10.66608797 -3 13 C-2.67 11.02 -2.34 9.04 -2 7 C-3.32 6.34 -4.64 5.68 -6 5 C-6 4.67 -6 4.34 -6 4 C-4.02 4 -2.04 4 0 4 C0 2.68 0 1.36 0 0 Z " fill="#D8DDE4" transform="translate(876,502)"/>
<path d="M0 0 C0.66 0 1.32 0 2 0 C2.33 0.99 2.66 1.98 3 3 C4.65 3.33 6.3 3.66 8 4 C8 4.66 8 5.32 8 6 C6.68 6.33 5.36 6.66 4 7 C4.33 8.65 4.66 10.3 5 12 C4.236875 11.814375 3.47375 11.62875 2.6875 11.4375 C-0.08967375 10.77180827 -0.08967375 10.77180827 -3 12 C-2.67 10.35 -2.34 8.7 -2 7 C-3.32 6.34 -4.64 5.68 -6 5 C-6 4.67 -6 4.34 -6 4 C-4.02 4 -2.04 4 0 4 C0 2.68 0 1.36 0 0 Z " fill="#D9DEE5" transform="translate(908,502)"/>
<path d="M0 0 C0.66 0.99 1.32 1.98 2 3 C4.56282742 3.72965366 4.56282742 3.72965366 7 4 C7 4.66 7 5.32 7 6 C5.68 6.33 4.36 6.66 3 7 C3.33 8.65 3.66 10.3 4 12 C3.236875 11.79375 2.47375 11.5875 1.6875 11.375 C-1.21885944 10.66608797 -1.21885944 10.66608797 -4 13 C-3.67 11.02 -3.34 9.04 -3 7 C-4.32 6.34 -5.64 5.68 -7 5 C-7 4.67 -7 4.34 -7 4 C-5.02 4 -3.04 4 -1 4 C-0.67 2.68 -0.34 1.36 0 0 Z " fill="#D9DEE5" transform="translate(845,502)"/>
<path d="M0 0 C0.66 0 1.32 0 2 0 C2.33 0.99 2.66 1.98 3 3 C4.65 3.33 6.3 3.66 8 4 C8 4.66 8 5.32 8 6 C6.68 6.33 5.36 6.66 4 7 C4.33 8.65 4.66 10.3 5 12 C4.236875 11.79375 3.47375 11.5875 2.6875 11.375 C-0.21885944 10.66608797 -0.21885944 10.66608797 -3 13 C-2.9071875 11.6078125 -2.9071875 11.6078125 -2.8125 10.1875 C-2.69105736 7.01604897 -2.69105736 7.01604897 -4.5 5.125 C-4.995 4.75375 -5.49 4.3825 -6 4 C-4.02 4 -2.04 4 0 4 C0 2.68 0 1.36 0 0 Z " fill="#D9DDE5" transform="translate(812,502)"/>
<path d="M0 0 C0.66 0 1.32 0 2 0 C2.33 1.32 2.66 2.64 3 4 C4.65 4 6.3 4 8 4 C7.01 5.485 7.01 5.485 6 7 C5.34 7 4.68 7 4 7 C4.33 8.65 4.66 10.3 5 12 C4.236875 11.79375 3.47375 11.5875 2.6875 11.375 C-0.21885944 10.66608797 -0.21885944 10.66608797 -3 13 C-2.9071875 11.6078125 -2.9071875 11.6078125 -2.8125 10.1875 C-2.69105736 7.01604897 -2.69105736 7.01604897 -4.5 5.125 C-4.995 4.75375 -5.49 4.3825 -6 4 C-4.02 4 -2.04 4 0 4 C0 2.68 0 1.36 0 0 Z " fill="#DBE0E6" transform="translate(812,475)"/>
<path d="M0 0 C3.36720387 1.39332574 4.9859524 2.9789286 7 6 C6.01 6.495 6.01 6.495 5 7 C5 8.65 5 10.3 5 12 C4.236875 11.814375 3.47375 11.62875 2.6875 11.4375 C-0.08967375 10.77180827 -0.08967375 10.77180827 -3 12 C-2.938125 11.236875 -2.87625 10.47375 -2.8125 9.6875 C-2.74101915 6.95474688 -2.74101915 6.95474688 -4.5 5.1875 C-4.995 4.795625 -5.49 4.40375 -6 4 C-4.02 4 -2.04 4 0 4 C0 2.68 0 1.36 0 0 Z " fill="#D7DCE4" transform="translate(908,448)"/>
<path d="M0 0 C0.33 1.32 0.66 2.64 1 4 C2.65 4 4.3 4 6 4 C5.505 4.391875 5.01 4.78375 4.5 5.1875 C2.54406857 7.55091715 2.75792027 9.01435003 3 12 C2.236875 11.814375 1.47375 11.62875 0.6875 11.4375 C-2.08967375 10.77180827 -2.08967375 10.77180827 -5 12 C-5 3 -5 3 -3.625 1.25 C-2 0 -2 0 0 0 Z " fill="#D6DBE3" transform="translate(814,448)"/>
<path d="M0 0 C0.66 0 1.32 0 2 0 C2.33 1.32 2.66 2.64 3 4 C4.65 4 6.3 4 8 4 C7.505 4.391875 7.01 4.78375 6.5 5.1875 C4.54406857 7.55091715 4.75792027 9.01435003 5 12 C4.236875 11.814375 3.47375 11.62875 2.6875 11.4375 C-0.08967375 10.77180827 -0.08967375 10.77180827 -3 12 C-2.938125 11.236875 -2.87625 10.47375 -2.8125 9.6875 C-2.74101915 6.95474688 -2.74101915 6.95474688 -4.5 5.1875 C-4.995 4.795625 -5.49 4.40375 -6 4 C-4.02 4 -2.04 4 0 4 C0 2.68 0 1.36 0 0 Z " fill="#E1E4EA" transform="translate(892,516)"/>
<path d="M0 0 C0.66 0 1.32 0 2 0 C2.33 0.99 2.66 1.98 3 3 C4.65 3.33 6.3 3.66 8 4 C7.505 4.391875 7.01 4.78375 6.5 5.1875 C4.54406857 7.55091715 4.75792027 9.01435003 5 12 C4.236875 11.814375 3.47375 11.62875 2.6875 11.4375 C-0.08967375 10.77180827 -0.08967375 10.77180827 -3 12 C-2.938125 11.236875 -2.87625 10.47375 -2.8125 9.6875 C-2.74101915 6.95474688 -2.74101915 6.95474688 -4.5 5.1875 C-4.995 4.795625 -5.49 4.40375 -6 4 C-4.02 4 -2.04 4 0 4 C0 2.68 0 1.36 0 0 Z " fill="#E0E4EA" transform="translate(908,475)"/>
<path d="M0 0 C0.66 0 1.32 0 2 0 C2.33 0.99 2.66 1.98 3 3 C4.65 3.33 6.3 3.66 8 4 C7.505 4.391875 7.01 4.78375 6.5 5.1875 C4.54406857 7.55091715 4.75792027 9.01435003 5 12 C4.236875 11.814375 3.47375 11.62875 2.6875 11.4375 C-0.08967375 10.77180827 -0.08967375 10.77180827 -3 12 C-2.938125 11.236875 -2.87625 10.47375 -2.8125 9.6875 C-2.74101915 6.95474688 -2.74101915 6.95474688 -4.5 5.1875 C-4.995 4.795625 -5.49 4.40375 -6 4 C-4.02 4 -2.04 4 0 4 C0 2.68 0 1.36 0 0 Z " fill="#E0E4EA" transform="translate(876,475)"/>
<path d="M0 0 C0.66 0 1.32 0 2 0 C2.33 1.32 2.66 2.64 3 4 C4.65 4 6.3 4 8 4 C7.505 4.391875 7.01 4.78375 6.5 5.1875 C4.54406857 7.55091715 4.75792027 9.01435003 5 12 C4.236875 11.814375 3.47375 11.62875 2.6875 11.4375 C-0.08967375 10.77180827 -0.08967375 10.77180827 -3 12 C-2.95875 11.236875 -2.9175 10.47375 -2.875 9.6875 C-2.77919176 6.77281584 -2.77919176 6.77281584 -5 4 C-3.35 4 -1.7 4 0 4 C0 2.68 0 1.36 0 0 Z " fill="#E4E7EC" transform="translate(796,516)"/>
<path d="M0 0 C0.66 0 1.32 0 2 0 C2 1.32 2 2.64 2 4 C3.98 4 5.96 4 8 4 C7.505 4.391875 7.01 4.78375 6.5 5.1875 C4.54406857 7.55091715 4.75792027 9.01435003 5 12 C4.236875 11.814375 3.47375 11.62875 2.6875 11.4375 C-0.08967375 10.77180827 -0.08967375 10.77180827 -3 12 C-2.938125 11.236875 -2.87625 10.47375 -2.8125 9.6875 C-2.74101915 6.95474688 -2.74101915 6.95474688 -4.5 5.1875 C-4.995 4.795625 -5.49 4.40375 -6 4 C-4.35 3.67 -2.7 3.34 -1 3 C-0.67 2.01 -0.34 1.02 0 0 Z " fill="#E4E7EC" transform="translate(924,516)"/>
<path d="M0 0 C0.33 1.32 0.66 2.64 1 4 C2.98 4 4.96 4 7 4 C6.01 5.485 6.01 5.485 5 7 C4.34 7 3.68 7 3 7 C3.33 8.65 3.66 10.3 4 12 C3.236875 11.814375 2.47375 11.62875 1.6875 11.4375 C-1.08967375 10.77180827 -1.08967375 10.77180827 -4 12 C-3.938125 11.236875 -3.87625 10.47375 -3.8125 9.6875 C-3.74101915 6.95474688 -3.74101915 6.95474688 -5.5 5.1875 C-5.995 4.795625 -6.49 4.40375 -7 4 C-5.02 4 -3.04 4 -1 4 C-0.67 2.68 -0.34 1.36 0 0 Z " fill="#E1E5EA" transform="translate(845,475)"/>
<path d="M0 0 C0.66 1.32 1.32 2.64 2 4 C3.65 4 5.3 4 7 4 C6.505 4.391875 6.01 4.78375 5.5 5.1875 C3.54406857 7.55091715 3.75792027 9.01435003 4 12 C3.236875 11.814375 2.47375 11.62875 1.6875 11.4375 C-1.08967375 10.77180827 -1.08967375 10.77180827 -4 12 C-3.938125 11.236875 -3.87625 10.47375 -3.8125 9.6875 C-3.74101915 6.95474688 -3.74101915 6.95474688 -5.5 5.1875 C-5.995 4.795625 -6.49 4.40375 -7 4 C-5.02 4 -3.04 4 -1 4 C-0.67 2.68 -0.34 1.36 0 0 Z " fill="#E4E7EC" transform="translate(845,448)"/>
<path d="M0 0 C0.66 0 1.32 0 2 0 C2.33 0.99 2.66 1.98 3 3 C4.65 3.33 6.3 3.66 8 4 C8 4.66 8 5.32 8 6 C6.68 6.33 5.36 6.66 4 7 C4.33 8.65 4.66 10.3 5 12 C4.236875 11.79375 3.47375 11.5875 2.6875 11.375 C-0.21885944 10.66608797 -0.21885944 10.66608797 -3 13 C-2.67 11.02 -2.34 9.04 -2 7 C-2.99 6.67 -3.98 6.34 -5 6 C-4.360625 5.7525 -3.72125 5.505 -3.0625 5.25 C-0.81258459 4.18437567 -0.81258459 4.18437567 -0.25 1.875 C-0.1675 1.25625 -0.085 0.6375 0 0 Z " fill="#DEE2E8" transform="translate(892,434)"/>
<path d="M0 0 C0.66 1.32 1.32 2.64 2 4 C3.65 4 5.3 4 7 4 C6.505 4.391875 6.01 4.78375 5.5 5.1875 C3.54406857 7.55091715 3.75792027 9.01435003 4 12 C3.236875 11.814375 2.47375 11.62875 1.6875 11.4375 C-1.08967375 10.77180827 -1.08967375 10.77180827 -4 12 C-3.95875 11.236875 -3.9175 10.47375 -3.875 9.6875 C-3.77919176 6.77281584 -3.77919176 6.77281584 -6 4 C-4.35 4 -2.7 4 -1 4 C-0.67 2.68 -0.34 1.36 0 0 Z " fill="#E5E8ED" transform="translate(861,516)"/>
<path d="M0 0 C0.66 1.32 1.32 2.64 2 4 C3.65 4 5.3 4 7 4 C6.505 4.391875 6.01 4.78375 5.5 5.1875 C3.54406857 7.55091715 3.75792027 9.01435003 4 12 C3.236875 11.814375 2.47375 11.62875 1.6875 11.4375 C-1.08967375 10.77180827 -1.08967375 10.77180827 -4 12 C-3.95875 11.236875 -3.9175 10.47375 -3.875 9.6875 C-3.77919176 6.77281584 -3.77919176 6.77281584 -6 4 C-4.35 4 -2.7 4 -1 4 C-0.67 2.68 -0.34 1.36 0 0 Z " fill="#E5E8ED" transform="translate(829,516)"/>
<path d="M0 0 C0.66 1.32 1.32 2.64 2 4 C3.65 4 5.3 4 7 4 C6.505 4.391875 6.01 4.78375 5.5 5.1875 C3.54406857 7.55091715 3.75792027 9.01435003 4 12 C3.236875 11.814375 2.47375 11.62875 1.6875 11.4375 C-1.08967375 10.77180827 -1.08967375 10.77180827 -4 12 C-3.95875 11.236875 -3.9175 10.47375 -3.875 9.6875 C-3.77919176 6.77281584 -3.77919176 6.77281584 -6 4 C-4.35 4 -2.7 4 -1 4 C-0.67 2.68 -0.34 1.36 0 0 Z " fill="#E4E7EC" transform="translate(877,421)"/>
<path d="M0 0 C0.66 1.32 1.32 2.64 2 4 C3.65 4 5.3 4 7 4 C6.505 4.391875 6.01 4.78375 5.5 5.1875 C3.54406857 7.55091715 3.75792027 9.01435003 4 12 C3.236875 11.814375 2.47375 11.62875 1.6875 11.4375 C-1.08967375 10.77180827 -1.08967375 10.77180827 -4 12 C-3.95875 11.236875 -3.9175 10.47375 -3.875 9.6875 C-3.77919176 6.77281584 -3.77919176 6.77281584 -6 4 C-4.35 4 -2.7 4 -1 4 C-0.67 2.68 -0.34 1.36 0 0 Z " fill="#E4E7EC" transform="translate(845,421)"/>
<path d="M0 0 C0.66 0 1.32 0 2 0 C2.33 1.32 2.66 2.64 3 4 C4.65 4 6.3 4 8 4 C7.2884375 4.86625 7.2884375 4.86625 6.5625 5.75 C5.0515133 7.92582084 4.45963849 9.42602448 4 12 C3.21625 11.814375 2.4325 11.62875 1.625 11.4375 C-0.97089775 10.74037734 -0.97089775 10.74037734 -3 12 C-2.95875 11.236875 -2.9175 10.47375 -2.875 9.6875 C-2.77919176 6.77281584 -2.77919176 6.77281584 -5 4 C-3.35 4 -1.7 4 0 4 C0 2.68 0 1.36 0 0 Z " fill="#E5E8ED" transform="translate(828,489)"/>
<path d="M0 0 C0.66 0 1.32 0 2 0 C2.33 1.65 2.66 3.3 3 5 C4.32 5.33 5.64 5.66 7 6 C6.690625 6.598125 6.38125 7.19625 6.0625 7.8125 C4.89790296 10.08956772 4.89790296 10.08956772 4 13 C3.21625 12.814375 2.4325 12.62875 1.625 12.4375 C-0.97089775 11.74037734 -0.97089775 11.74037734 -3 13 C-2.95875 12.236875 -2.9175 11.47375 -2.875 10.6875 C-2.77919176 7.77281584 -2.77919176 7.77281584 -5 5 C-3.35 5 -1.7 5 0 5 C0 3.35 0 1.7 0 0 Z " fill="#E5E8ED" transform="translate(892,488)"/>
<path d="M0 0 C0.33 1.32 0.66 2.64 1 4 C2.98 4 4.96 4 7 4 C6.505 4.391875 6.01 4.78375 5.5 5.1875 C3.54406857 7.55091715 3.75792027 9.01435003 4 12 C3.236875 11.814375 2.47375 11.62875 1.6875 11.4375 C-1.08967375 10.77180827 -1.08967375 10.77180827 -4 12 C-3.938125 11.236875 -3.87625 10.47375 -3.8125 9.6875 C-3.74101915 6.95474688 -3.74101915 6.95474688 -5.5 5.1875 C-5.995 4.795625 -6.49 4.40375 -7 4 C-5.02 4 -3.04 4 -1 4 C-0.67 2.68 -0.34 1.36 0 0 Z " fill="#E7EAEE" transform="translate(877,448)"/>
<path d="M0 0 C0.66 1.32 1.32 2.64 2 4 C3.65 4 5.3 4 7 4 C6.2884375 4.86625 6.2884375 4.86625 5.5625 5.75 C4.0515133 7.92582084 3.45963849 9.42602448 3 12 C2.21625 11.814375 1.4325 11.62875 0.625 11.4375 C-1.97089775 10.74037734 -1.97089775 10.74037734 -4 12 C-3.95875 11.236875 -3.9175 10.47375 -3.875 9.6875 C-3.77919176 6.77281584 -3.77919176 6.77281584 -6 4 C-4.35 4 -2.7 4 -1 4 C-0.67 2.68 -0.34 1.36 0 0 Z " fill="#E7EAEE" transform="translate(861,489)"/>
<path d="M0 0 C2 3 2 3 2 5 C3.65 5 5.3 5 7 5 C6.505 5.391875 6.01 5.78375 5.5 6.1875 C3.54406857 8.55091715 3.75792027 10.01435003 4 13 C1.525 12.01 1.525 12.01 -1 11 C-1.33 11.66 -1.66 12.32 -2 13 C-2.66 13 -3.32 13 -4 13 C-3.95875 12.236875 -3.9175 11.47375 -3.875 10.6875 C-3.77919176 7.77281584 -3.77919176 7.77281584 -6 5 C-4.35 5 -2.7 5 -1 5 C-0.67 3.35 -0.34 1.7 0 0 Z " fill="#E9ECF0" transform="translate(797,488)"/>
<path d="M0 0 C0.66 0 1.32 0 2 0 C2 1.65 2 3.3 2 5 C3.65 5 5.3 5 7 5 C6.690625 5.763125 6.38125 6.52625 6.0625 7.3125 C5.32106407 9.18789677 4.63771783 11.08684652 4 13 C3.21625 12.814375 2.4325 12.62875 1.625 12.4375 C-0.97089775 11.74037734 -0.97089775 11.74037734 -3 13 C-2.95875 12.236875 -2.9175 11.47375 -2.875 10.6875 C-2.77919176 7.77281584 -2.77919176 7.77281584 -5 5 C-3.68 4.67 -2.36 4.34 -1 4 C-0.67 2.68 -0.34 1.36 0 0 Z " fill="#E6E9EE" transform="translate(924,488)"/>
<path d="M0 0 C0.66 0 1.32 0 2 0 C2.33 1.32 2.66 2.64 3 4 C4.65 4 6.3 4 8 4 C7.505 4.391875 7.01 4.78375 6.5 5.1875 C4.54406857 7.55091715 4.75792027 9.01435003 5 12 C1.6875 11.375 1.6875 11.375 -2 10 C-3.9375 6.875 -3.9375 6.875 -5 4 C-3.35 4 -1.7 4 0 4 C0 2.68 0 1.36 0 0 Z " fill="#E8EBEF" transform="translate(764,516)"/>
<path d="M0 0 C0.66 0 1.32 0 2 0 C2 1.65 2 3.3 2 5 C3.65 5 5.3 5 7 5 C6.649375 5.5775 6.29875 6.155 5.9375 6.75 C4.85082593 9.35801776 5.06934867 10.39417629 6 13 C5.071875 12.62875 4.14375 12.2575 3.1875 11.875 C2.135625 11.58625 1.08375 11.2975 0 11 C-0.99 11.66 -1.98 12.32 -3 13 C-2.67 11.02 -2.34 9.04 -2 7 C-2.99 6.67 -3.98 6.34 -5 6 C-4.360625 5.7525 -3.72125 5.505 -3.0625 5.25 C-0.81258459 4.18437567 -0.81258459 4.18437567 -0.25 1.875 C-0.1675 1.25625 -0.085 0.6375 0 0 Z " fill="#E7EAEE" transform="translate(892,461)"/>
<path d="M0 0 C2 3 2 3 2 5 C3.32 5.33 4.64 5.66 6 6 C5.01 7.485 5.01 7.485 4 9 C4 9.99 4 10.98 4 12 C3.236875 11.79375 2.47375 11.5875 1.6875 11.375 C-1.21885944 10.66608797 -1.21885944 10.66608797 -4 13 C-3.67 11.02 -3.34 9.04 -3 7 C-3.99 6.67 -4.98 6.34 -6 6 C-6 5.67 -6 5.34 -6 5 C-4.35 5 -2.7 5 -1 5 C-0.67 3.35 -0.34 1.7 0 0 Z " fill="#EAECF0" transform="translate(829,461)"/>
<path d="M0 0 C2 3 2 3 2 5 C3.32 5.33 4.64 5.66 6 6 C5.01 6.33 4.02 6.66 3 7 C3.33 8.65 3.66 10.3 4 12 C3.236875 11.79375 2.47375 11.5875 1.6875 11.375 C-1.21885944 10.66608797 -1.21885944 10.66608797 -4 13 C-3.67 11.02 -3.34 9.04 -3 7 C-3.99 6.67 -4.98 6.34 -6 6 C-5.38125 5.7525 -4.7625 5.505 -4.125 5.25 C-1.64931313 3.79371361 -1.04874998 2.62187494 0 0 Z " fill="#EAEDF1" transform="translate(861,434)"/>
<path d="M0 0 C0.33 1.32 0.66 2.64 1 4 C2.65 4 4.3 4 6 4 C5.649375 4.5775 5.29875 5.155 4.9375 5.75 C3.85082593 8.35801776 4.06934867 9.39417629 5 12 C4.071875 11.62875 3.14375 11.2575 2.1875 10.875 C1.135625 10.58625 0.08375 10.2975 -1 10 C-1.99 10.66 -2.98 11.32 -4 12 C-3.67 10.02 -3.34 8.04 -3 6 C-3.99 5.67 -4.98 5.34 -6 5 C-6 4.67 -6 4.34 -6 4 C-4.35 4 -2.7 4 -1 4 C-0.67 2.68 -0.34 1.36 0 0 Z " fill="#EBEDF1" transform="translate(861,462)"/>
<path d="M0 0 C2 3 2 3 2 5 C3.32 5.33 4.64 5.66 6 6 C5.01 6.33 4.02 6.66 3 7 C3.33 8.65 3.66 10.3 4 12 C3.236875 11.79375 2.47375 11.5875 1.6875 11.375 C-1.21885944 10.66608797 -1.21885944 10.66608797 -4 13 C-3.67 11.02 -3.34 9.04 -3 7 C-3.99 6.67 -4.98 6.34 -6 6 C-6 5.67 -6 5.34 -6 5 C-4.35 5 -2.7 5 -1 5 C-0.67 3.35 -0.34 1.7 0 0 Z " fill="#EBEDF1" transform="translate(829,434)"/>
<path d="M0 0 C2.4375 1.5625 2.4375 1.5625 5 4 C5.8125 7.75 5.8125 7.75 6 11 C5.071875 10.62875 4.14375 10.2575 3.1875 9.875 C2.135625 9.58625 1.08375 9.2975 0 9 C-0.99 9.66 -1.98 10.32 -3 11 C-2.95875 10.236875 -2.9175 9.47375 -2.875 8.6875 C-2.77919176 5.77281584 -2.77919176 5.77281584 -5 3 C-4.360625 2.87625 -3.72125 2.7525 -3.0625 2.625 C-2.0415625 2.315625 -2.0415625 2.315625 -1 2 C-0.67 1.34 -0.34 0.68 0 0 Z " fill="#E8EBEF" transform="translate(924,463)"/>
<path d="M0 0 C0.66 0.33 1.32 0.66 2 1 C2 1.66 2 2.32 2 3 C3.32 3.33 4.64 3.66 6 4 C5.01 5.485 5.01 5.485 4 7 C4 7.99 4 8.98 4 10 C3.236875 9.79375 2.47375 9.5875 1.6875 9.375 C-1.21885944 8.66608797 -1.21885944 8.66608797 -4 11 C-4.49230769 4.6 -4.49230769 4.6 -2 1.5625 C-1.34 1.046875 -0.68 0.53125 0 0 Z " fill="#EDEFF2" transform="translate(797,463)"/>
<path d="M0 0 C1.36125 0.37125 1.36125 0.37125 2.75 0.75 C1.76 2.235 1.76 2.235 0.75 3.75 C0.09 3.75 -0.57 3.75 -1.25 3.75 C-0.92 5.4 -0.59 7.05 -0.25 8.75 C-1.013125 8.54375 -1.77625 8.3375 -2.5625 8.125 C-5.46885944 7.41608797 -5.46885944 7.41608797 -8.25 9.75 C-7.9389194 6.32811345 -7.53534154 4.16216 -5.5625 1.3125 C-3.25 -0.25 -3.25 -0.25 0 0 Z " fill="#E2E6EB" transform="translate(785.25,478.25)"/>
<path d="M0 0 C0.7425 0.0825 1.485 0.165 2.25 0.25 C1.734375 0.641875 1.21875 1.03375 0.6875 1.4375 C0.213125 2.035625 -0.26125 2.63375 -0.75 3.25 C-0.51956136 5.90466049 -0.51956136 5.90466049 0.25 8.25 C-1.1421875 7.9715625 -1.1421875 7.9715625 -2.5625 7.6875 C-5.76343771 7.00876119 -5.76343771 7.00876119 -8.75 8.25 C-6.92599593 3.9939905 -4.88604345 0.44418577 0 0 Z " fill="#E2E5EB" transform="translate(769.75,492.75)"/>
<path d="M0 0 C0.33 1.32 0.66 2.64 1 4 C0.01 4.495 0.01 4.495 -1 5 C-0.67 3.35 -0.34 1.7 0 0 Z M-6 5 C-4.35 5 -2.7 5 -1 5 C-1.66 6.32 -2.32 7.64 -3 9 C-3.99 7.68 -4.98 6.36 -6 5 Z " fill="#DCE0E7" transform="translate(797,488)"/>
</svg>
